<svg width="15" height="15" viewBox="0 0 15 15" fill="none" xmlns="http://www.w3.org/2000/svg">
<path d="M14.244 0.739868H5.68839C5.47343 0.739868 5.29949 0.913811 5.29949 1.12877C5.29949 1.34373 5.47343 1.51767 5.68839 1.51767H13.3052L0.746754 14.0761C0.594832 14.228 0.594832 14.4741 0.746754 14.626C0.822697 14.7019 0.922228 14.7399 1.02172 14.7399C1.12122 14.7399 1.22071 14.7019 1.29669 14.626L13.8551 2.06757V9.68434C13.8551 9.8993 14.029 10.0732 14.244 10.0732C14.459 10.0732 14.6329 9.8993 14.6329 9.68434V1.12877C14.6329 0.913811 14.4589 0.739868 14.244 0.739868Z" fill="white"/>
</svg>
