<svg width="27" height="18" viewBox="0 0 27 18" fill="none" xmlns="http://www.w3.org/2000/svg">
<path d="M25.2928 12.7314H24.445V8.49229C24.445 7.08974 23.3039 5.9488 21.9015 5.9488H19.1213L18.0054 2.60092C17.6585 1.56072 16.6888 0.861816 15.5923 0.861816C15.4603 0.861816 6.29445 0.861816 6.07538 0.861816C4.97007 0.861816 4.02772 1.57067 3.67774 2.55745H2.68411C1.28163 2.55745 0.140625 3.69845 0.140625 5.10089V8.49229C0.140625 9.89476 1.28163 11.0357 2.68411 11.0357H3.53195V12.7314H2.68411C2.2159 12.7314 1.83626 13.111 1.83626 13.5792C1.83626 14.0475 2.21585 14.4271 2.68411 14.4271C3.47812 14.4271 4.43093 14.4271 5.22759 14.4271C5.22759 16.297 6.74894 17.8184 8.61892 17.8184C10.4889 17.8184 12.0102 16.297 12.0102 14.4271H15.9667C15.9667 16.297 17.4881 17.8184 19.3581 17.8184C21.2281 17.8184 22.7494 16.297 22.7494 14.4271C23.5463 14.4271 24.4994 14.4271 25.2929 14.4271C25.7611 14.4271 26.1407 14.0475 26.1407 13.5792C26.1407 13.111 25.761 12.7314 25.2928 12.7314ZM3.53195 9.34004H2.68411C2.21661 9.34004 1.83626 8.95968 1.83626 8.49221V5.10089C1.83626 4.63335 2.21661 4.25307 2.68411 4.25307H3.53195C3.53195 4.79325 3.53195 8.81622 3.53195 9.34004ZM12.0102 2.55745H13.4233H15.5923C15.9579 2.55745 16.2811 2.79044 16.3967 3.13711L17.3338 5.94872H12.0102V2.55745ZM5.22759 3.40524C5.22759 2.93775 5.60794 2.5574 6.07543 2.5574H10.3146V5.94872H5.22759V3.40524ZM8.61892 16.1227C7.68393 16.1227 6.92328 15.362 6.92328 14.427C6.92328 13.492 7.68393 12.7314 8.61892 12.7314C9.55393 12.7314 10.3146 13.492 10.3146 14.427C10.3146 15.362 9.55393 16.1227 8.61892 16.1227ZM19.358 16.1227C18.4231 16.1227 17.6624 15.362 17.6624 14.427C17.6624 13.492 18.4231 12.7314 19.358 12.7314C20.293 12.7314 21.0536 13.492 21.0536 14.427C21.0536 15.362 20.293 16.1227 19.358 16.1227ZM22.7493 12.7314H22.2931C21.7057 11.7187 20.6105 11.0357 19.358 11.0357C18.1056 11.0357 17.0103 11.7187 16.423 12.7314H11.5539C10.9666 11.7187 9.87135 11.0357 8.61892 11.0357C7.36644 11.0357 6.27119 11.7187 5.68386 12.7314H5.22764V10.1879V7.64438C6.61021 7.64438 20.9937 7.64438 21.9016 7.64438C22.369 7.64438 22.7494 8.02475 22.7494 8.49229L22.7493 12.7314Z" fill="white"/>
<path d="M14.5552 9.34009H12.8595C12.3913 9.34009 12.0117 9.71969 12.0117 10.1879C12.0117 10.6561 12.3913 11.0357 12.8595 11.0357H14.5552C15.0234 11.0357 15.403 10.6562 15.403 10.1879C15.403 9.71969 15.0234 9.34009 14.5552 9.34009Z" fill="white"/>
</svg>
