<svg width="24" height="15" viewBox="0 0 24 15" fill="none" xmlns="http://www.w3.org/2000/svg">
<path d="M19.2539 4.90245H18.3033C18.1963 4.90314 18.0903 4.88265 17.9914 4.84219C17.8923 4.80174 17.8023 4.74217 17.7264 4.66685L15.5651 2.50563C15.0322 1.97263 14.3986 1.55091 13.7011 1.26498C13.0037 0.97903 12.2564 0.834569 11.5027 0.839991H4.62891C3.55147 0.839991 2.51815 1.268 1.75629 2.02983C0.99442 2.79171 0.566406 3.82506 0.566406 4.90245V8.96495C0.566406 9.61144 0.823217 10.2315 1.28034 10.6886C1.73745 11.1457 2.35744 11.4025 3.00391 11.4025C3.00391 12.1567 3.30352 12.88 3.83682 13.4133C4.37013 13.9466 5.09345 14.2462 5.84766 14.2462C6.60185 14.2462 7.32518 13.9466 7.85849 13.4133C8.39179 12.88 8.69141 12.1567 8.69141 11.4025H14.4602C14.55 12.0823 14.8838 12.7063 15.3995 13.1583C15.9152 13.6103 16.5775 13.8595 17.2633 13.8595C17.949 13.8595 18.6114 13.6103 19.127 13.1583C19.6428 12.7063 19.9766 12.0823 20.0664 11.4025H20.8789C21.5254 11.4025 22.1453 11.1457 22.6025 10.6886C23.0596 10.2315 23.3164 9.61144 23.3164 8.96495C23.3164 7.88756 22.8884 6.85421 22.1265 6.09233C21.3646 5.33053 20.3314 4.90245 19.2539 4.90245ZM11.5433 2.46495C12.0771 2.46403 12.6059 2.56834 13.0995 2.77183C13.593 2.97539 14.0416 3.27424 14.4195 3.65124L15.6708 4.90245H5.63641C5.48499 4.90352 5.33628 4.86223 5.20708 4.78331C5.07787 4.70432 4.97329 4.59083 4.90516 4.45563L3.96266 2.57063C4.17814 2.50204 4.40277 2.46641 4.62891 2.46495H11.5433ZM2.19141 8.96495V4.90245C2.19185 4.40906 2.34201 3.92745 2.62204 3.52124L3.43454 5.14624C3.63384 5.56079 3.94637 5.91041 4.33599 6.15481C4.72563 6.39929 5.17646 6.52845 5.63641 6.52745H10.3164V9.77745H8.40701C8.17882 9.29148 7.81689 8.88045 7.36365 8.59262C6.91041 8.30471 6.38459 8.15184 5.84766 8.15184C5.31072 8.15184 4.78488 8.30471 4.33163 8.59262C3.8784 8.88045 3.5165 9.29148 3.28828 9.77745H3.00391C2.78842 9.77745 2.58176 9.69188 2.42938 9.53955C2.27701 9.38715 2.19141 9.18045 2.19141 8.96495ZM5.84766 12.215C5.60661 12.215 5.37098 12.1435 5.17056 12.0096C4.97013 11.8757 4.81392 11.6853 4.72168 11.4626C4.62943 11.24 4.6053 10.9949 4.65232 10.7585C4.69935 10.522 4.81543 10.3049 4.98587 10.1344C5.15632 9.96404 5.37348 9.84796 5.60989 9.80093C5.8463 9.7539 6.09135 9.77799 6.31405 9.87029C6.53675 9.96251 6.72711 10.1187 6.86101 10.3192C6.99491 10.5195 7.06641 10.7552 7.06641 10.9962C7.06641 11.3195 6.93801 11.6295 6.70944 11.858C6.48089 12.0866 6.17089 12.215 5.84766 12.215ZM17.2226 12.215C16.9816 12.215 16.746 12.1435 16.5455 12.0096C16.3451 11.8757 16.1889 11.6853 16.0967 11.4626C16.0044 11.24 15.9803 10.9949 16.0273 10.7585C16.0743 10.522 16.1904 10.3049 16.3609 10.1344C16.5313 9.96404 16.7485 9.84796 16.9849 9.80093C17.2213 9.7539 17.4663 9.77799 17.6891 9.87029C17.9118 9.96251 18.1021 10.1187 18.236 10.3192C18.3699 10.5195 18.4414 10.7552 18.4414 10.9962C18.4414 11.3195 18.313 11.6295 18.0844 11.858C17.8559 12.0866 17.5459 12.215 17.2226 12.215ZM20.8789 9.77745H19.782C19.5538 9.29148 19.1919 8.88045 18.7386 8.59262C18.2854 8.30471 17.7596 8.15184 17.2226 8.15184C16.6857 8.15184 16.1599 8.30471 15.7067 8.59262C15.2534 8.88045 14.8915 9.29148 14.6633 9.77745H11.9414V6.52745H19.2539C19.5947 6.52929 19.9312 6.60255 20.2419 6.74249C20.5526 6.8825 20.8305 7.08599 21.0576 7.33995H20.8789C20.6634 7.33995 20.4568 7.4256 20.3044 7.57793C20.152 7.73034 20.0664 7.93704 20.0664 8.15245C20.0664 8.36795 20.152 8.57465 20.3044 8.72705C20.4568 8.87938 20.6634 8.96495 20.8789 8.96495H21.6914C21.6914 9.18045 21.6058 9.38715 21.4534 9.53955C21.301 9.69188 21.0944 9.77745 20.8789 9.77745Z" fill="white"/>
</svg>
