<svg width="27" height="14" viewBox="0 0 27 14" fill="none" xmlns="http://www.w3.org/2000/svg">
<path d="M22.5087 4.33813H20.4951C19.8222 3.35013 18.9269 2.52423 17.8839 1.93519C16.7159 1.27559 15.3896 0.927002 14.0484 0.927002H13.4801C13.0679 0.927002 12.7338 1.26114 12.7338 1.67331V4.33813H4.45152C2.63305 4.33813 1.12616 5.69378 0.885862 7.44729C0.883165 7.46423 0.880853 7.48116 0.879311 7.49855C0.861775 7.64288 0.851562 7.7893 0.851562 7.93824V10.7919C0.851562 11.2041 1.1857 11.5382 1.59787 11.5382H4.20911C4.54113 12.8208 5.70829 13.7706 7.0932 13.7706C8.47811 13.7706 9.64528 12.8208 9.97727 11.5382H16.983C17.3152 12.8208 18.4822 13.7706 19.8671 13.7706C21.252 13.7706 22.4189 12.8208 22.7511 11.5382H25.3624C25.7746 11.5382 26.1087 11.2041 26.1087 10.7919V7.93824C26.1087 5.95311 24.4937 4.33813 22.5087 4.33813ZM14.2265 2.42231C15.8759 2.46955 17.4405 3.17304 18.5752 4.33813H14.2265V2.42231ZM2.34419 8.30863H3.49691C3.90908 8.30863 4.24322 7.97449 4.24322 7.56228C4.24322 7.15015 3.90908 6.81601 3.49691 6.81601H2.66927C3.04291 6.22462 3.70194 5.83091 4.45152 5.83091H12.7338V10.0456H9.97727C9.64506 8.76304 8.47811 7.813 7.0932 7.813C5.70829 7.813 4.54132 8.76304 4.20911 10.0456H2.34419V8.30863ZM8.57928 10.7919C8.57928 11.6114 7.91272 12.278 7.0932 12.278C6.27366 12.278 5.60713 11.6114 5.60713 10.7919C5.60713 9.97241 6.27366 9.30584 7.0932 9.30584C7.91272 9.30584 8.57928 9.97241 8.57928 10.7919ZM21.3532 10.7919C21.3532 11.6114 20.6866 12.278 19.8671 12.278C19.0476 12.278 18.381 11.6114 18.381 10.7919C18.381 9.97241 19.0476 9.30584 19.8671 9.30584C20.6866 9.30584 21.3532 9.97241 21.3532 10.7919ZM22.7511 10.0456C22.4192 8.76304 21.252 7.813 19.8671 7.813C18.4822 7.813 17.315 8.76304 16.983 10.0456H14.2265V5.83091H22.5087C23.2451 5.83091 23.8942 6.21095 24.2712 6.78481H23.1161C22.704 6.78481 22.3698 7.11895 22.3698 7.53108C22.3698 7.94329 22.704 8.27758 23.1161 8.27758H24.6161V10.0456H22.7511Z" fill="white"/>
</svg>
