<svg width="79" height="20" viewBox="0 0 79 20" fill="none" xmlns="http://www.w3.org/2000/svg">
<g clip-path="url(#clip0_5_527)">
<path d="M5.05859 4.5116C5.29297 4.04285 5.95703 4.06238 6.17188 4.5116L7.46094 7.10925L10.3125 7.51941C10.8203 7.59753 11.0156 8.22253 10.6445 8.59363L8.59375 10.6053L9.08203 13.4374C9.16016 13.9452 8.61328 14.3358 8.16406 14.1014L5.625 12.7538L3.06641 14.1014C2.61719 14.3358 2.07031 13.9452 2.14844 13.4374L2.63672 10.6053L0.585938 8.59363C0.214844 8.22253 0.410156 7.59753 0.917969 7.51941L3.78906 7.10925L5.05859 4.5116ZM21.3086 4.5116C21.543 4.04285 22.207 4.06238 22.4219 4.5116L23.7109 7.10925L26.5625 7.51941C27.0703 7.59753 27.2656 8.22253 26.8945 8.59363L24.8438 10.6053L25.332 13.4374C25.4102 13.9452 24.8633 14.3358 24.4141 14.1014L21.875 12.7538L19.3164 14.1014C18.8672 14.3358 18.3203 13.9452 18.3984 13.4374L18.8867 10.6053L16.8359 8.59363C16.4648 8.22253 16.6602 7.59753 17.168 7.51941L20.0391 7.10925L21.3086 4.5116ZM37.5586 4.5116C37.793 4.04285 38.457 4.06238 38.6719 4.5116L39.9609 7.10925L42.8125 7.51941C43.3203 7.59753 43.5156 8.22253 43.1445 8.59363L41.0938 10.6053L41.582 13.4374C41.6602 13.9452 41.1133 14.3358 40.6641 14.1014L38.125 12.7538L35.5664 14.1014C35.1172 14.3358 34.5703 13.9452 34.6484 13.4374L35.1367 10.6053L33.0859 8.59363C32.7148 8.22253 32.9102 7.59753 33.418 7.51941L36.2891 7.10925L37.5586 4.5116ZM53.8086 4.5116C54.043 4.04285 54.707 4.06238 54.9219 4.5116L56.2109 7.10925L59.0625 7.51941C59.5703 7.59753 59.7656 8.22253 59.3945 8.59363L57.3438 10.6053L57.832 13.4374C57.9102 13.9452 57.3633 14.3358 56.9141 14.1014L54.375 12.7538L51.8164 14.1014C51.3672 14.3358 50.8203 13.9452 50.8984 13.4374L51.3867 10.6053L49.3359 8.59363C48.9648 8.22253 49.1602 7.59753 49.668 7.51941L52.5391 7.10925L53.8086 4.5116ZM70.0586 4.5116C70.293 4.04285 70.957 4.06238 71.1719 4.5116L72.4609 7.10925L75.3125 7.51941C75.8203 7.59753 76.0156 8.22253 75.6445 8.59363L73.5938 10.6053L74.082 13.4374C74.1602 13.9452 73.6133 14.3358 73.1641 14.1014L70.625 12.7538L68.0664 14.1014C67.6172 14.3358 67.0703 13.9452 67.1484 13.4374L67.6367 10.6053L65.5859 8.59363C65.2148 8.22253 65.4102 7.59753 65.918 7.51941L68.7891 7.10925L70.0586 4.5116Z" fill="#E1C03F"/>
</g>
<defs>
<clipPath id="clip0_5_527">
<rect width="79" height="19.5" fill="white" transform="translate(0 0.160034)"/>
</clipPath>
</defs>
</svg>
