<svg width="41" height="27" viewBox="0 0 41 27" fill="none" xmlns="http://www.w3.org/2000/svg">
<rect y="0.969971" width="40.72" height="25.89" rx="12.945" fill="#E1C03F"/>
<path d="M14.41 18.188C13.7193 18.188 13.122 18.0667 12.618 17.824C12.114 17.572 11.7127 17.2314 11.414 16.802C11.1247 16.3634 10.9473 15.8687 10.882 15.318H12.338C12.4313 15.7847 12.6647 16.172 13.038 16.48C13.4113 16.7787 13.8733 16.928 14.424 16.928C14.8347 16.928 15.1893 16.83 15.488 16.634C15.7867 16.4287 16.02 16.158 16.188 15.822C16.356 15.486 16.44 15.108 16.44 14.688C16.44 14.0254 16.2533 13.498 15.88 13.106C15.5067 12.7047 15.0353 12.504 14.466 12.504C13.9807 12.504 13.5653 12.6207 13.22 12.854C12.8747 13.078 12.6227 13.3627 12.464 13.708H11.05L11.89 8.22002H17.182V9.52202H13.01L12.506 12.14C12.7207 11.8974 13.0147 11.6967 13.388 11.538C13.7707 11.37 14.2 11.286 14.676 11.286C15.3387 11.286 15.908 11.44 16.384 11.748C16.86 12.0467 17.224 12.4527 17.476 12.966C17.7373 13.4794 17.868 14.0487 17.868 14.674C17.868 15.3274 17.728 15.92 17.448 16.452C17.168 16.984 16.7667 17.4087 16.244 17.726C15.7307 18.034 15.1193 18.188 14.41 18.188ZM20.153 18.104C19.873 18.104 19.6396 18.0154 19.453 17.838C19.2756 17.6514 19.187 17.432 19.187 17.18C19.187 16.9187 19.2756 16.6994 19.453 16.522C19.6396 16.3354 19.873 16.242 20.153 16.242C20.433 16.242 20.6616 16.3354 20.839 16.522C21.0163 16.6994 21.105 16.9187 21.105 17.18C21.105 17.432 21.0163 17.6514 20.839 17.838C20.6616 18.0154 20.433 18.104 20.153 18.104ZM26.0156 18.188C25.1289 18.188 24.3636 17.978 23.7196 17.558C23.0849 17.1287 22.5949 16.536 22.2496 15.78C21.9136 15.0147 21.7456 14.128 21.7456 13.12C21.7456 12.112 21.9136 11.23 22.2496 10.474C22.5949 9.70869 23.0849 9.11602 23.7196 8.69602C24.3636 8.26669 25.1289 8.05202 26.0156 8.05202C26.9022 8.05202 27.6629 8.26669 28.2976 8.69602C28.9322 9.11602 29.4176 9.70869 29.7536 10.474C30.0989 11.23 30.2716 12.112 30.2716 13.12C30.2716 14.128 30.0989 15.0147 29.7536 15.78C29.4176 16.536 28.9322 17.1287 28.2976 17.558C27.6629 17.978 26.9022 18.188 26.0156 18.188ZM26.0156 16.858C26.5476 16.858 27.0189 16.7087 27.4296 16.41C27.8496 16.1114 28.1762 15.682 28.4096 15.122C28.6429 14.562 28.7596 13.8947 28.7596 13.12C28.7596 12.3454 28.6429 11.678 28.4096 11.118C28.1762 10.558 27.8496 10.1287 27.4296 9.83002C27.0189 9.53135 26.5476 9.38202 26.0156 9.38202C25.4742 9.38202 24.9982 9.53135 24.5876 9.83002C24.1769 10.1287 23.8549 10.558 23.6216 11.118C23.3882 11.678 23.2716 12.3454 23.2716 13.12C23.2716 13.8947 23.3882 14.562 23.6216 15.122C23.8549 15.682 24.1769 16.1114 24.5876 16.41C24.9982 16.7087 25.4742 16.858 26.0156 16.858Z" fill="white"/>
</svg>
