<svg width="106" height="26" viewBox="0 0 106 26" fill="none" xmlns="http://www.w3.org/2000/svg">
<path d="M6.20844 0.720428C10.1984 0.720428 11.9134 2.57543 11.9134 6.35543V7.23043C11.9134 9.75043 11.1434 11.3604 9.42844 12.1654C11.4934 12.9704 12.2984 14.8254 12.2984 17.4154V19.4104C12.2984 23.1904 10.3034 25.2204 6.45344 25.2204H0.398438V0.720428H6.20844ZM5.96344 14.1954H4.24844V21.7204H6.45344C7.74844 21.7204 8.44844 21.1254 8.44844 19.3054V17.1704C8.44844 14.8954 7.71344 14.1954 5.96344 14.1954ZM6.10344 4.22043H4.24844V10.6954H5.75344C7.18844 10.6954 8.06344 10.0654 8.06344 8.10543V6.74043C8.06344 4.99043 7.46844 4.22043 6.10344 4.22043ZM19.9022 6.35543V19.5854C19.9022 21.3354 20.6722 22.0004 21.8972 22.0004C23.1222 22.0004 23.8922 21.3354 23.8922 19.5854V6.35543C23.8922 4.60543 23.1222 3.94043 21.8972 3.94043C20.6722 3.94043 19.9022 4.60543 19.9022 6.35543ZM16.0522 19.3404V6.60043C16.0522 2.68043 18.1172 0.44043 21.8972 0.44043C25.6772 0.44043 27.7422 2.68043 27.7422 6.60043V19.3404C27.7422 23.2604 25.6772 25.5004 21.8972 25.5004C18.1172 25.5004 16.0522 23.2604 16.0522 19.3404ZM40.7564 0.720428H44.3264L40.3014 12.6204L44.6064 25.2204H40.5464L37.3964 15.5254L34.2114 25.2204H30.6064L34.9114 12.6204L30.8864 0.720428H34.8764L37.7814 9.75043L40.7564 0.720428ZM55.2828 16.0854H58.9228V19.3404C58.9228 23.2604 56.9628 25.5004 53.1828 25.5004C49.4028 25.5004 47.4428 23.2604 47.4428 19.3404V6.60043C47.4428 2.68043 49.4028 0.44043 53.1828 0.44043C56.9628 0.44043 58.9228 2.68043 58.9228 6.60043V8.98043H55.2828V6.35543C55.2828 4.60543 54.5128 3.94043 53.2878 3.94043C52.0628 3.94043 51.2928 4.60543 51.2928 6.35543V19.5854C51.2928 21.3354 52.0628 21.9654 53.2878 21.9654C54.5128 21.9654 55.2828 21.3354 55.2828 19.5854V16.0854ZM71.5488 0.720428L75.4688 25.2204H71.5838L70.9188 20.7754H66.1938L65.5288 25.2204H61.9938L65.9138 0.720428H71.5488ZM68.5388 5.06043L66.6838 17.4504H70.3938L68.5388 5.06043ZM90.9817 25.2204H87.0617C86.8517 24.5904 86.7117 24.2054 86.7117 22.2104V18.3604C86.7117 16.0854 85.9417 15.2454 84.1917 15.2454H82.8617V25.2204H79.0117V0.720428H84.8217C88.8117 0.720428 90.5267 2.57543 90.5267 6.35543V8.28043C90.5267 10.8004 89.7217 12.4454 88.0067 13.2504C89.9317 14.0554 90.5617 15.9104 90.5617 18.4654V22.2454C90.5617 23.4354 90.5967 24.3104 90.9817 25.2204ZM84.7167 4.22043H82.8617V11.7454H84.3667C85.8017 11.7454 86.6767 11.1154 86.6767 9.15543V6.74043C86.6767 4.99043 86.0817 4.22043 84.7167 4.22043ZM94.3537 6.60043C94.3537 2.68043 96.2787 0.44043 100.023 0.44043C103.768 0.44043 105.693 2.68043 105.693 6.60043V7.37043H102.053V6.35543C102.053 4.60543 101.353 3.94043 100.128 3.94043C98.9037 3.94043 98.2037 4.60543 98.2037 6.35543C98.2037 11.3954 105.728 12.3404 105.728 19.3404C105.728 23.2604 103.768 25.5004 99.9884 25.5004C96.2087 25.5004 94.2487 23.2604 94.2487 19.3404V17.8354H97.8887V19.5854C97.8887 21.3354 98.6587 21.9654 99.8834 21.9654C101.108 21.9654 101.878 21.3354 101.878 19.5854C101.878 14.5454 94.3537 13.6004 94.3537 6.60043Z" fill="white"/>
</svg>
