<svg width="36" height="37" viewBox="0 0 36 37" fill="none" xmlns="http://www.w3.org/2000/svg">
<rect y="0.530029" width="36" height="36" rx="18" fill="white"/>
<g clip-path="url(#clip0_5_119)">
<path d="M21.4003 24.53C21.1603 24.53 20.9336 24.4634 20.7203 24.33L18.1203 22.69C18.0403 22.6367 17.9603 22.6367 17.8803 22.69L15.2803 24.33C15.0403 24.49 14.7736 24.55 14.4803 24.51C14.187 24.47 13.9336 24.3567 13.7203 24.17C13.4536 23.93 13.3203 23.6234 13.3203 23.25V13.81C13.3203 13.4634 13.447 13.1634 13.7003 12.91C13.9536 12.6567 14.2536 12.53 14.6003 12.53H21.4003C21.747 12.53 22.047 12.6567 22.3003 12.91C22.5536 13.1634 22.6803 13.4634 22.6803 13.81V23.25C22.6803 23.5967 22.5536 23.8967 22.3003 24.15C22.047 24.4034 21.747 24.53 21.4003 24.53ZM18.0003 21.61C18.2403 21.61 18.467 21.6767 18.6803 21.81L21.2803 23.45C21.307 23.4767 21.347 23.49 21.4003 23.49C21.4536 23.49 21.5003 23.47 21.5403 23.43C21.5803 23.39 21.6003 23.33 21.6003 23.25V13.81C21.6003 13.73 21.5803 13.67 21.5403 13.63C21.5003 13.59 21.4536 13.57 21.4003 13.57H14.6003C14.547 13.57 14.5003 13.59 14.4603 13.63C14.4203 13.67 14.4003 13.73 14.4003 13.81V23.25C14.4003 23.33 14.4336 23.3967 14.5003 23.45C14.567 23.5034 14.6403 23.5034 14.7203 23.45L17.3203 21.81C17.5336 21.6767 17.7603 21.61 18.0003 21.61Z" fill="#050B20"/>
</g>
<defs>
<clipPath id="clip0_5_119">
<rect width="12" height="12" fill="white" transform="matrix(1 0 0 -1 12 24.53)"/>
</clipPath>
</defs>
</svg>
