<svg width="8" height="13" viewBox="0 0 8 13" fill="none" xmlns="http://www.w3.org/2000/svg">
<path d="M7.17652 6.74008L2.02083 11.9001C1.86096 12.0601 1.66779 12.1401 1.44131 12.1401C1.21484 12.1401 1.015 12.0601 0.841814 11.9001C0.668625 11.7401 0.582031 11.5401 0.582031 11.3001C0.582031 11.0601 0.675287 10.8601 0.861797 10.7001L5.41799 6.14008L0.861797 1.58008C0.675287 1.42008 0.582031 1.22008 0.582031 0.980076C0.582031 0.740076 0.668625 0.540076 0.841814 0.380076C1.015 0.220076 1.21484 0.140076 1.44131 0.140076C1.66779 0.140076 1.86096 0.220076 2.02083 0.380076L7.17652 5.54008C7.36303 5.70008 7.45628 5.90008 7.45628 6.14008C7.45628 6.38008 7.36303 6.58008 7.17652 6.74008Z" fill="white"/>
</svg>
