<svg width="12" height="13" viewBox="0 0 12 13" fill="none" xmlns="http://www.w3.org/2000/svg">
<g clip-path="url(#clip0_5_433)">
<path d="M2.55859 6.14008C2.55859 5.90008 2.65193 5.70008 2.83859 5.54008L7.99859 0.380076C8.15859 0.220076 8.35193 0.140076 8.57859 0.140076C8.80526 0.140076 9.00526 0.220076 9.17859 0.380076C9.35193 0.540076 9.43859 0.740076 9.43859 0.980076C9.43859 1.22008 9.34526 1.42008 9.15859 1.58008L4.59859 6.14008L9.15859 10.7001C9.31859 10.8601 9.39859 11.0601 9.39859 11.3001C9.39859 11.5401 9.31859 11.7401 9.15859 11.9001C8.99859 12.0601 8.80526 12.1401 8.57859 12.1401C8.35193 12.1401 8.15859 12.0601 7.99859 11.9001L2.83859 6.74008C2.65193 6.58008 2.55859 6.38008 2.55859 6.14008Z" fill="white"/>
</g>
<defs>
<clipPath id="clip0_5_433">
<rect width="12" height="12" fill="white" transform="matrix(1 0 0 -1 0 12.1401)"/>
</clipPath>
</defs>
</svg>
