<svg width="12" height="13" viewBox="0 0 12 13" fill="none" xmlns="http://www.w3.org/2000/svg">
<g clip-path="url(#clip0_5_436)">
<path d="M9.17652 6.74008L4.02083 11.9001C3.86096 12.0601 3.66779 12.1401 3.44131 12.1401C3.21484 12.1401 3.015 12.0601 2.84181 11.9001C2.66863 11.7401 2.58203 11.5401 2.58203 11.3001C2.58203 11.0601 2.67529 10.8601 2.8618 10.7001L7.41799 6.14008L2.8618 1.58008C2.67529 1.42008 2.58203 1.22008 2.58203 0.980076C2.58203 0.740076 2.66863 0.540076 2.84181 0.380076C3.015 0.220076 3.21484 0.140076 3.44131 0.140076C3.66779 0.140076 3.86096 0.220076 4.02083 0.380076L9.17652 5.54008C9.36303 5.70008 9.45628 5.90008 9.45628 6.14008C9.45628 6.38008 9.36303 6.58008 9.17652 6.74008Z" fill="white"/>
</g>
<defs>
<clipPath id="clip0_5_436">
<rect width="11.96" height="12" fill="white" transform="matrix(1 0 0 -1 0.0195312 12.1401)"/>
</clipPath>
</defs>
</svg>
